<?xml version="1.0" standalone="no"?>
<!DOCTYPE svg PUBLIC "-//W3C//DTD SVG 20010904//EN"
 "http://www.w3.org/TR/2001/REC-SVG-20010904/DTD/svg10.dtd">
<svg version="1.0" xmlns="http://www.w3.org/2000/svg"
 width="300.000000pt" height="169.000000pt" viewBox="0 0 300.000000 169.000000"
 preserveAspectRatio="xMidYMid meet">
<metadata>
Created by potrace 1.10, written by Peter Selinger 2001-2011
</metadata>
<g transform="translate(0.000000,169.000000) scale(0.100000,-0.100000)"
fill="#494744" stroke="none">
<path d="M926 1651 c-3 -5 3 -30 14 -56 11 -26 20 -53 20 -62 0 -8 -18 -36
-40 -62 -22 -26 -40 -53 -40 -59 0 -7 -4 -12 -9 -12 -5 0 -18 -19 -30 -42 -11
-23 -53 -76 -93 -117 -40 -41 -72 -78 -70 -83 1 -4 -3 -8 -9 -8 -15 0 -39 -26
-32 -34 4 -3 0 -6 -8 -6 -17 0 -59 -68 -59 -94 0 -24 -34 -88 -58 -109 -11
-10 -26 -33 -33 -50 -7 -18 -23 -49 -36 -69 -28 -45 -30 -71 -6 -66 10 2 17
10 15 18 -4 19 57 140 74 147 8 3 14 11 14 19 0 8 5 14 10 14 6 0 10 7 10 15
0 8 4 15 9 15 10 0 20 23 27 59 8 40 30 73 91 138 55 60 84 93 117 138 18 23
20 17 6 -20 -5 -14 -11 -53 -11 -86 -1 -39 -6 -59 -14 -59 -8 0 -11 -13 -9
-39 1 -25 -3 -44 -12 -52 -7 -6 -11 -16 -7 -22 4 -6 0 -8 -10 -4 -9 3 -19 2
-21 -2 -3 -5 6 -8 21 -7 14 0 28 -5 30 -11 3 -8 -4 -13 -16 -13 -11 0 -23 -4
-26 -10 -8 -12 -3 -13 29 0 25 9 38 50 16 50 -5 0 -10 4 -10 10 0 16 30 -1 31
-19 0 -12 2 -11 8 4 5 11 4 25 -1 32 -5 6 -13 25 -18 41 -6 23 -5 32 6 36 8 3
14 -1 14 -11 0 -13 3 -13 15 -3 16 13 21 45 6 36 -11 -7 -21 17 -21 49 0 49
33 152 65 201 19 27 54 73 79 101 44 49 46 53 34 80 -7 15 -18 34 -25 41 -7 7
-13 20 -13 27 0 17 -17 28 -24 16z"/>
<path d="M1290 1613 c1 -10 5 -37 9 -60 9 -47 6 -50 -106 -141 l-51 -42 -27
57 c-15 32 -29 52 -32 45 -3 -8 -11 -5 -24 10 -10 13 -18 18 -19 12 0 -14 32
-43 45 -41 14 3 47 -93 41 -118 -4 -14 5 -9 30 18 39 42 95 77 123 77 10 0 24
11 31 25 12 22 15 23 23 10 4 -8 13 -12 19 -9 8 5 9 1 5 -10 -4 -10 -7 -22 -7
-27 0 -5 -4 -9 -10 -9 -5 0 -10 6 -10 14 0 21 -17 29 -24 11 -3 -8 1 -21 10
-29 9 -9 10 -17 4 -21 -16 -10 -12 -21 10 -22 18 -2 25 8 21 31 -1 5 5 4 13
-4 18 -14 22 -25 6 -15 -14 9 -12 -2 6 -33 l16 -27 -21 24 c-19 22 -21 22 -21
4 0 -11 9 -30 20 -43 11 -13 20 -31 20 -42 0 -10 5 -18 10 -18 21 0 9 -28 -14
-32 -17 -4 -31 2 -45 17 -10 13 -33 26 -50 30 -17 4 -31 11 -31 16 0 5 -14 9
-31 9 -17 0 -39 5 -51 11 -28 15 -32 6 -9 -22 11 -13 20 -19 21 -12 0 15 75
-10 102 -34 10 -9 18 -13 18 -9 0 4 10 0 22 -8 12 -9 30 -16 39 -16 9 0 28
-11 43 -25 15 -14 31 -23 36 -20 5 3 11 1 15 -5 4 -6 11 -8 16 -5 5 4 9 1 9
-5 0 -16 30 -43 73 -65 50 -26 80 -61 96 -110 18 -56 40 -103 51 -110 13 -8
13 28 0 41 -5 5 -11 22 -12 37 -1 15 -6 27 -11 27 -5 0 -7 7 -4 14 4 11 1 13
-11 9 -15 -6 -16 -5 -2 12 9 11 10 16 3 11 -17 -9 -17 16 -1 32 7 7 8 12 4 12
-5 0 -15 -8 -23 -17 -13 -16 -14 -16 -9 -1 2 9 -2 19 -10 22 -9 3 -12 11 -8
17 4 7 1 10 -7 7 -20 -7 -51 11 -43 24 5 7 0 9 -15 5 -13 -3 -20 -3 -17 0 3 4
-8 14 -24 24 -25 16 -30 25 -30 56 0 38 -29 123 -42 123 -4 0 -2 -15 4 -32 6
-18 13 -50 15 -70 5 -35 3 -38 -19 -38 -21 0 -24 4 -24 43 0 124 -28 250 -65
292 -9 11 -25 46 -35 78 -17 55 -34 76 -34 40z"/>
<path d="M949 1422 c-21 -20 -43 -48 -50 -62 -18 -34 -19 -91 -2 -97 18 -7 17
-29 -2 -37 -15 -6 -10 -36 7 -36 5 0 7 4 4 9 -3 5 1 14 8 20 19 16 16 -10 -3
-33 -11 -13 -11 -16 0 -16 9 0 10 -3 3 -8 -16 -10 7 -144 26 -150 12 -4 13 -2
3 9 -15 15 -17 77 -4 97 6 11 11 10 25 -3 9 -9 16 -22 16 -30 0 -14 17 -15 38
-2 8 6 12 2 12 -10 0 -27 85 -30 99 -4 11 20 5 31 -17 31 -17 0 -51 39 -52 60
0 11 -4 10 -17 -4 -13 -14 -15 -20 -5 -23 6 -3 10 -9 6 -14 -3 -5 3 -9 13 -10
11 0 13 -3 5 -6 -25 -10 -1 -21 36 -17 44 6 32 -11 -15 -19 -26 -5 -35 -2 -43
14 -6 11 -15 17 -20 14 -10 -6 -30 48 -30 81 0 27 -16 40 -24 19 -3 -8 -1 -15
4 -15 6 0 10 -6 10 -14 0 -11 -5 -12 -24 -3 -14 7 -21 14 -17 17 4 3 11 21 14
40 5 25 4 31 -3 20 -9 -13 -10 -13 -10 1 0 8 5 20 12 27 9 9 7 12 -10 12 -19
0 -25 9 -21 36 0 4 -5 11 -13 15 -7 5 -8 9 -2 9 6 0 14 -3 18 -7 10 -11 37
-12 30 -2 -3 5 -11 6 -17 2 -7 -4 -6 1 2 11 12 14 12 19 2 26 -9 5 -10 10 -2
14 6 4 15 5 20 1 5 -3 12 4 16 15 4 11 11 18 16 15 5 -4 9 -1 9 4 0 6 -4 11
-10 11 -5 0 -7 7 -4 15 9 22 3 18 -37 -23z"/>
<path d="M1069 1419 c-9 -17 -8 -23 2 -30 8 -5 10 -9 5 -9 -6 0 -5 -5 2 -12
14 -14 16 -38 3 -38 -5 0 -11 9 -14 20 -5 19 -15 22 -67 22 -34 0 -40 -2 -40
-13 0 -7 9 -9 21 -6 28 7 79 -3 79 -15 0 -5 -8 -7 -17 -4 -10 3 -25 1 -33 -5
-13 -9 -13 -10 1 -6 9 3 26 -1 38 -9 19 -14 20 -13 15 3 -4 12 1 10 15 -7 26
-32 27 -44 2 -30 -11 5 -26 10 -33 9 -7 0 -3 -4 10 -9 13 -6 30 -24 38 -42 14
-30 15 -31 9 -5 -3 15 0 37 6 48 6 12 7 19 1 15 -5 -3 -13 1 -16 10 -8 21 -8
26 3 20 12 -8 9 27 -3 36 -5 3 -10 22 -10 42 -1 20 -2 36 -3 36 -1 0 -7 -10
-14 -21z"/>
<path d="M975 1290 c-3 -5 -1 -10 5 -10 7 0 9 -8 5 -21 -7 -20 -6 -20 19 2 28
25 37 50 9 28 -11 -10 -14 -10 -9 -1 4 7 2 12 -8 12 -8 0 -18 -4 -21 -10z"/>
<path d="M1035 1260 c3 -5 0 -11 -7 -11 -7 -1 0 -4 16 -8 19 -4 30 -13 31 -26
2 -11 6 -27 9 -36 4 -10 3 -20 -3 -24 -13 -8 4 -28 34 -38 16 -6 15 -3 -5 13
-24 21 -24 21 -2 15 25 -7 27 -3 11 26 -5 11 -14 17 -20 14 -9 -6 -10 -5 -14
32 -1 13 -8 29 -15 38 -14 16 -45 21 -35 5z"/>
<path d="M1205 1192 c3 -8 5 -20 5 -28 0 -21 23 -17 38 6 7 12 17 18 22 15 6
-3 10 -2 10 3 0 6 -18 12 -40 14 -31 3 -39 0 -35 -10z"/>
<path d="M1143 1184 c-18 -19 -17 -21 19 -22 21 0 27 2 19 7 -7 5 -16 13 -20
19 -4 6 -11 5 -18 -4z"/>
<path d="M722 1148 c-7 -7 -12 -20 -12 -29 0 -10 -6 -19 -12 -22 -7 -2 -10 -8
-6 -12 8 -8 38 18 38 33 0 6 4 12 10 14 5 2 6 9 2 15 -6 10 -11 10 -20 1z"/>
<path d="M1215 1123 c-5 -12 -9 -14 -12 -6 -3 9 -11 6 -26 -7 -11 -11 -18 -23
-14 -26 7 -8 67 34 67 47 0 14 -7 11 -15 -8z"/>
<path d="M1389 1100 c26 -23 31 -33 22 -43 -11 -14 -6 -27 10 -27 5 0 6 7 3
15 -5 11 -2 13 10 9 9 -3 16 -3 16 0 0 9 -74 75 -85 76 -5 0 5 -14 24 -30z"/>
<path d="M1270 1110 c0 -6 5 -8 11 -4 7 4 9 0 5 -14 -7 -22 18 -39 30 -20 4 6
3 8 -4 4 -6 -3 -12 3 -14 16 -3 22 -28 39 -28 18z"/>
<path d="M840 1095 c-7 -8 -10 -28 -8 -45 3 -16 0 -30 -5 -30 -5 0 -4 -7 3
-15 7 -8 19 -15 27 -15 12 0 14 7 8 28 -4 15 -8 42 -8 60 -1 37 -1 37 -17 17z"/>
<path d="M1227 1056 c-4 -9 -13 -16 -22 -16 -8 0 -15 -4 -15 -9 0 -5 9 -7 20
-4 11 3 20 0 20 -6 0 -6 -5 -10 -11 -8 -6 1 -13 -4 -14 -11 -2 -7 -1 -8 1 -3
3 6 12 7 21 4 13 -5 15 -2 11 15 -6 22 -1 25 44 25 10 0 15 3 13 8 -3 4 -15 6
-27 4 -12 -3 -25 0 -29 6 -4 7 -8 5 -12 -5z"/>
<path d="M1507 1043 c-14 -13 5 -22 25 -12 14 8 23 8 31 0 6 -6 16 -11 21 -11
6 0 5 5 -1 11 -13 13 -67 21 -76 12z"/>
<path d="M1327 1026 c-9 -7 -17 -19 -17 -25 0 -7 -4 -10 -9 -7 -5 4 -12 0 -14
-6 -4 -10 -8 -9 -16 2 -9 13 -11 13 -11 -1 0 -9 8 -20 17 -23 15 -6 15 -8 3
-16 -10 -6 -11 -10 -3 -10 7 0 10 -7 7 -15 -4 -8 -2 -15 4 -15 12 0 25 47 17
63 -4 7 1 3 11 -8 16 -20 16 -20 11 5 -4 15 0 31 10 42 20 22 14 31 -10 14z"/>
<path d="M960 1010 c0 -5 -12 -10 -26 -10 -23 0 -25 -3 -22 -37 2 -31 7 -38
25 -39 13 -1 28 6 35 15 11 14 11 14 -4 3 -11 -9 -18 -10 -23 -2 -3 6 -11 7
-17 4 -7 -5 -8 -2 -4 5 5 7 14 10 22 7 7 -3 16 0 20 6 4 7 3 8 -4 4 -22 -14
-12 21 11 37 18 13 19 16 5 16 -10 1 -18 -3 -18 -9z"/>
<path d="M1460 1008 c0 -10 -5 -18 -11 -18 -6 0 -1 -12 10 -26 14 -18 21 -41
21 -70 0 -38 4 -45 31 -59 17 -9 28 -19 25 -22 -7 -7 22 -63 34 -63 10 0 6 83
-5 100 -4 6 -14 9 -22 6 -24 -10 -43 24 -38 69 3 32 -1 46 -20 70 -19 23 -25
26 -25 13z"/>
<path d="M1089 983 c-8 -9 -13 -26 -12 -37 3 -20 2 -20 -9 2 -6 12 -15 22 -20
22 -5 0 -1 -11 7 -24 9 -13 12 -26 8 -28 -4 -3 -2 -3 5 -1 8 1 23 3 35 3 19 1
20 2 7 13 -14 11 -14 14 1 29 13 12 19 13 23 5 2 -7 5 -4 5 6 1 21 -17 23 -25
2 -4 -8 -10 -12 -16 -9 -5 3 -4 11 3 20 6 8 9 14 6 14 -2 0 -11 -7 -18 -17z"/>
<path d="M643 972 c-16 -13 -20 -25 -18 -54 2 -21 -1 -40 -7 -44 -7 -4 -6 -9
3 -15 10 -6 10 -9 2 -9 -7 0 -10 -7 -6 -16 4 -10 -2 -17 -17 -21 -16 -4 -18
-8 -8 -14 24 -15 45 -9 56 16 8 17 8 26 0 31 -7 5 -5 10 5 15 19 11 11 49 -10
49 -12 0 -13 3 -4 13 6 8 8 17 4 20 -3 4 1 7 11 7 9 0 15 4 12 9 -4 5 -1 11 6
13 7 3 8 7 2 10 -5 4 -19 -1 -31 -10z"/>
<path d="M1159 978 c-1 -7 -1 -16 0 -20 0 -5 -8 -8 -19 -8 -18 0 -19 -2 -8
-20 10 -16 14 -17 16 -6 4 17 30 29 45 19 6 -4 8 0 4 10 -4 10 0 17 11 20 16
4 16 5 0 6 -9 0 -20 -3 -23 -9 -10 -16 -25 -12 -19 5 4 8 3 15 0 15 -3 0 -7
-6 -7 -12z"/>
<path d="M1393 963 c4 -3 -1 -12 -11 -19 -15 -12 -15 -15 -2 -24 8 -6 23 -8
33 -6 9 2 15 0 11 -5 -3 -5 4 -9 15 -9 12 0 21 2 21 5 0 7 -59 65 -66 65 -4 0
-4 -3 -1 -7z"/>
<path d="M1024 936 c-3 -9 -4 -23 0 -31 6 -18 52 -20 62 -3 5 8 2 9 -9 5 -26
-10 -50 2 -37 18 8 9 8 15 0 20 -5 3 -13 -1 -16 -9z"/>
<path d="M1621 923 c-1 -36 -14 -42 -31 -15 -11 16 -11 16 -6 -2 4 -10 2 -24
-4 -31 -9 -10 -7 -12 7 -9 39 11 53 29 43 60 l-8 29 -1 -32z"/>
<path d="M894 908 c-17 -8 -17 -8 3 -4 13 2 24 -2 27 -11 3 -8 1 -11 -4 -8 -6
3 -10 3 -10 -2 0 -4 11 -13 25 -20 19 -8 23 -8 18 0 -3 7 -2 8 2 4 5 -4 10
-14 11 -23 2 -11 -1 -12 -11 -4 -10 8 -15 8 -20 -1 -4 -6 -2 -15 5 -19 9 -5 9
-9 1 -14 -6 -4 -16 -4 -23 0 -7 4 -8 3 -4 -5 4 -6 1 -14 -8 -17 -8 -3 -17 -12
-20 -20 -3 -8 12 -1 33 17 29 22 52 32 84 34 24 1 52 7 60 12 14 7 14 10 -6
22 -12 8 -19 10 -15 6 8 -9 -36 -35 -57 -35 -7 0 -12 8 -10 18 1 9 10 16 19
16 8 -1 13 2 10 7 -3 5 7 9 23 9 24 1 25 2 10 11 -9 5 -22 7 -29 3 -8 -5 -9
-2 -5 9 3 9 2 19 -3 22 -6 4 -10 -5 -10 -19 0 -30 -21 -34 -41 -9 -10 11 -10
14 -1 9 6 -4 12 -3 12 2 0 14 -43 20 -66 10z"/>
<path d="M555 876 c-9 -20 -33 -52 -53 -71 -20 -19 -31 -35 -25 -35 6 0 16 7
23 15 7 8 19 15 26 15 8 0 14 6 14 14 0 7 7 19 16 26 23 20 34 45 24 59 -6 10
-13 3 -25 -23z"/>
<path d="M1150 902 c-16 -5 -30 -21 -30 -35 0 -7 48 -2 57 7 10 10 -13 33 -27
28z"/>
<path d="M1280 893 c0 -6 6 -14 13 -16 7 -3 5 -6 -5 -6 -11 -1 -15 -6 -12 -16
5 -11 -2 -15 -27 -16 -19 -1 -40 -1 -46 0 -7 1 -13 -2 -13 -7 0 -8 -31 -21
-48 -21 -6 0 -62 -66 -62 -74 0 -4 -4 -6 -8 -3 -4 2 -8 -4 -9 -14 -1 -13 3
-17 13 -13 8 3 14 0 14 -6 0 -6 -9 -11 -20 -11 -11 0 -19 -6 -17 -12 1 -7 -4
-12 -11 -10 -8 1 -11 -2 -8 -7 7 -11 -48 -53 -73 -56 -9 -1 -23 -4 -31 -7 -8
-4 -22 -9 -30 -11 -8 -3 9 -4 37 -2 51 4 113 30 113 48 0 5 7 7 15 3 8 -3 14
-2 14 2 -1 4 0 10 1 15 1 4 3 13 4 20 1 6 10 11 20 9 17 -3 18 -2 3 13 -19 19
-12 46 10 38 11 -4 14 -2 9 5 -4 7 -2 12 3 12 6 0 11 6 11 13 0 15 71 47 111
50 16 1 29 5 29 10 0 4 10 7 23 7 14 0 40 -18 67 -45 31 -32 52 -45 72 -45 30
0 73 -34 63 -50 -4 -6 1 -10 9 -10 28 0 26 18 -11 89 -26 48 -45 73 -60 77
-13 4 -23 10 -23 16 0 5 5 6 10 3 6 -3 10 -1 10 5 0 6 -8 10 -17 8 -11 -2 -17
-11 -15 -22 2 -11 -1 -15 -7 -11 -6 3 -34 6 -62 7 -34 0 -47 3 -38 9 12 7 11
11 -3 26 -10 9 -18 12 -18 6z m153 -80 c-4 -9 -2 -14 3 -10 5 3 10 -3 10 -13
0 -11 -2 -17 -5 -15 -2 3 -10 0 -17 -6 -16 -13 -27 -7 -54 31 l-21 30 45 0
c38 0 44 -3 39 -17z"/>
<path d="M881 858 c-10 -16 -10 -23 0 -32 9 -8 11 -7 6 5 -4 13 -1 15 14 12
22 -6 25 3 6 22 -11 11 -16 9 -26 -7z"/>
<path d="M1618 823 c6 -61 12 -68 12 -15 0 53 20 67 21 15 1 -21 3 -30 6 -20
2 9 11 17 19 17 8 0 14 5 14 10 0 6 -6 10 -14 10 -8 0 -16 7 -20 15 -3 8 -14
15 -24 15 -17 0 -19 -6 -14 -47z"/>
<path d="M1290 801 c0 -5 8 -12 19 -16 10 -3 27 -15 37 -27 18 -20 18 -21 1
-15 -11 4 -16 3 -12 -3 3 -6 15 -10 26 -10 10 0 18 -5 17 -12 -3 -12 3 -14 38
-17 8 0 12 -6 8 -12 -4 -7 -1 -10 6 -7 24 8 21 23 -7 36 -16 6 -48 30 -73 52
-46 40 -60 48 -60 31z"/>
<path d="M1676 775 c4 -22 7 -53 6 -70 0 -16 12 -55 28 -85 72 -137 73 -141
60 -169 -11 -25 -10 -25 6 -9 27 26 19 70 -27 150 -27 46 -43 88 -45 113 -1
22 -2 47 -3 56 -1 8 -8 24 -17 35 -14 18 -15 16 -8 -21z"/>
<path d="M743 775 c-3 -9 -3 -19 1 -22 8 -9 37 18 30 28 -8 14 -24 11 -31 -6z"/>
<path d="M940 765 c-12 -13 -27 -22 -32 -19 -5 3 -6 -6 -2 -22 6 -23 4 -26 -9
-21 -9 3 -19 1 -23 -5 -4 -7 -3 -8 4 -4 7 4 12 2 12 -4 0 -7 -6 -10 -14 -7
-17 7 -42 -18 -28 -27 5 -3 20 2 33 12 13 10 31 21 40 25 10 3 17 17 17 33 0
17 8 35 22 46 12 10 18 18 13 18 -5 0 -20 -11 -33 -25z"/>
<path d="M990 784 c0 -1 7 -10 16 -18 14 -15 13 -17 -8 -25 -21 -9 -21 -10 -3
-10 20 -1 52 36 40 47 -5 6 -45 11 -45 6z"/>
<path d="M827 764 c-16 -9 -27 -18 -24 -20 6 -7 54 13 62 25 9 15 -5 13 -38
-5z"/>
<path d="M564 729 c-10 -11 -24 -17 -31 -15 -7 3 -13 0 -13 -6 0 -6 -7 -19
-16 -29 -14 -16 -14 -18 5 -28 17 -9 20 -9 15 3 -6 16 43 69 55 61 4 -2 12 -1
18 3 8 5 7 11 -2 19 -10 9 -17 8 -31 -8z"/>
<path d="M650 725 c-11 -13 -9 -15 15 -15 16 0 25 5 23 12 -7 19 -24 20 -38 3z"/>
<path d="M832 731 c-11 -6 -10 -10 4 -15 14 -5 6 -14 -37 -42 -55 -36 -33 -38
27 -2 35 21 41 32 24 43 -6 4 -8 11 -5 16 7 11 4 11 -13 0z"/>
<path d="M1198 724 c-5 -5 -14 -7 -48 -13 -3 -1 2 -5 9 -10 9 -6 22 -6 34 0
20 11 51 -6 42 -22 -3 -4 3 -13 14 -18 36 -20 39 -11 10 20 -16 17 -29 35 -29
40 0 10 -23 12 -32 3z"/>
<path d="M445 713 c-11 -3 -24 -9 -29 -13 -13 -12 -66 -148 -66 -168 0 -10 -7
-28 -16 -40 -8 -12 -12 -22 -7 -22 4 -1 -3 -7 -17 -15 -19 -11 -21 -14 -7 -15
9 0 17 -8 17 -17 1 -26 49 68 50 95 0 13 8 36 19 50 10 15 19 34 19 42 2 35
10 52 37 80 16 16 27 29 24 29 -2 -1 -13 -3 -24 -6z"/>
<path d="M1567 692 c-11 -2 -16 -9 -13 -18 4 -11 -2 -13 -31 -8 -34 5 -35 5
-20 -11 18 -17 22 -35 9 -35 -4 0 -8 -9 -8 -19 0 -11 5 -19 10 -18 5 1 15 -8
21 -21 11 -20 13 -21 19 -7 8 22 8 35 -1 34 -21 -3 -31 2 -29 16 3 20 16 31
17 14 0 -8 4 -6 9 6 7 16 9 17 9 3 1 -9 5 -19 10 -23 6 -3 7 9 4 31 -4 25 -2
39 8 44 17 11 10 18 -14 12z"/>
<path d="M950 679 c0 -5 -8 -6 -17 -2 -15 5 -14 3 2 -11 20 -16 20 -16 -5 -37
l-25 -21 32 18 c18 10 30 21 27 25 -2 4 0 10 6 14 15 9 12 22 -5 22 -8 0 -15
-4 -15 -8z"/>
<path d="M1331 685 c-1 -17 13 -32 32 -32 21 0 23 23 1 31 -8 3 -12 2 -9 -4 3
-6 2 -10 -4 -10 -5 0 -12 6 -14 13 -3 6 -6 8 -6 2z"/>
<path d="M660 651 c-31 -6 -33 -8 -13 -14 14 -5 32 -3 50 7 29 16 21 18 -37 7z"/>
<path d="M810 645 c-6 -8 -9 -19 -5 -24 3 -6 0 -8 -8 -5 -8 3 -14 -2 -14 -11
0 -8 3 -15 7 -15 11 0 50 45 50 58 0 16 -15 15 -30 -3z"/>
<path d="M1440 645 c-7 -8 -19 -15 -27 -15 -8 0 -11 -5 -8 -10 4 -6 16 -8 28
-5 12 2 16 2 9 -1 -6 -3 -10 -9 -8 -13 3 -4 -4 -7 -14 -8 -11 -1 -22 2 -25 8
-4 5 -11 9 -16 9 -6 0 -7 -4 -4 -10 3 -6 -1 -7 -9 -4 -21 8 -20 13 7 24 22 9
22 9 -3 9 -14 0 -34 -4 -45 -9 -18 -8 -18 -9 -2 -9 10 -1 16 -5 13 -10 -5 -8
93 -36 99 -29 16 21 24 48 14 54 -8 4 -7 9 2 15 7 4 11 11 8 14 -4 3 -12 -1
-19 -10z"/>
<path d="M1200 640 c0 -4 -11 -5 -24 -3 -16 3 -36 -4 -59 -21 -18 -14 -37 -23
-42 -18 -5 4 -5 2 -1 -5 3 -6 0 -15 -7 -20 -7 -4 -16 -16 -20 -25 -5 -14 -1
-18 14 -18 11 0 17 5 14 10 -3 6 -1 10 4 10 16 0 51 33 51 47 0 9 16 13 53 12
45 -1 119 -15 92 -18 -12 -1 33 -25 62 -33 11 -3 27 -2 34 3 10 6 6 9 -13 9
-15 0 -38 10 -52 23 -13 12 -30 27 -38 33 -17 13 -68 24 -68 14z"/>
<path d="M469 618 c-14 -25 -16 -29 -25 -73 l-7 -30 24 25 c24 25 33 60 16 60
-5 0 -4 7 3 15 7 9 10 18 7 21 -3 3 -11 -5 -18 -18z"/>
<path d="M627 596 c-3 -8 -30 -26 -61 -41 -56 -27 -80 -55 -48 -55 14 0 15 -2
2 -9 -8 -6 -17 -8 -21 -6 -3 3 -17 -7 -29 -20 -13 -14 -19 -25 -14 -25 5 0 15
9 22 20 14 22 38 17 47 -10 3 -11 12 -17 20 -14 14 6 10 35 -5 31 -4 -1 -9 2
-9 8 -1 5 10 11 25 12 35 3 41 10 27 33 -13 20 -9 25 39 49 15 8 25 18 22 23
-9 14 6 9 35 -11 18 -13 32 -17 42 -10 11 7 9 9 -8 9 -14 0 -23 6 -23 15 0 19
-56 20 -63 1z"/>
<path d="M832 597 c-6 -7 -16 -25 -21 -40 -10 -25 -9 -27 8 -17 28 14 35 12
21 -5 -7 -8 -20 -15 -29 -15 -9 -1 -27 -10 -41 -21 l-25 -21 24 -19 c29 -24
40 -24 35 -1 -3 10 10 32 30 55 19 20 30 37 23 37 -7 0 -6 4 3 11 12 8 10 9
-9 4 -16 -5 -21 -4 -17 4 4 6 14 11 22 11 8 0 14 4 14 9 0 5 8 12 18 14 9 3 3
5 -14 6 -17 0 -36 -5 -42 -12z"/>
<path d="M1583 558 c12 -30 18 -33 54 -33 33 0 39 3 35 18 -3 14 -7 15 -18 6
-8 -6 -14 -8 -14 -3 0 5 -4 3 -9 -4 -6 -10 -11 -6 -19 17 -6 17 -18 31 -27 31
-13 0 -13 -4 -2 -32z"/>
<path d="M1496 556 c17 -13 16 -14 -18 -11 -22 2 -38 -1 -38 -7 0 -6 11 -8 26
-4 15 4 23 3 20 -2 -7 -12 27 -10 36 2 7 11 -15 36 -33 36 -7 0 -4 -6 7 -14z"/>
<path d="M955 537 c-8 -4 -20 -5 -27 -1 -7 4 -8 3 -4 -4 5 -8 -1 -12 -14 -12
-12 0 -18 4 -15 10 4 6 -1 7 -11 3 -14 -5 -14 -7 5 -17 20 -11 20 -13 4 -36
-14 -20 -28 -100 -18 -100 1 0 15 16 30 36 l28 36 -24 -7 c-18 -6 -16 -1 11
17 19 14 34 31 32 38 -5 20 19 42 33 30 9 -7 14 -7 18 3 5 15 -25 17 -48 4z"/>
<path d="M1100 530 c-14 -11 -23 -20 -20 -21 30 -6 50 -3 54 8 3 7 13 13 23
14 16 0 16 1 -2 9 -28 12 -27 12 -55 -10z"/>
<path d="M660 530 c0 -6 7 -10 15 -10 8 0 15 -5 15 -11 0 -5 -5 -7 -12 -3 -7
4 -8 3 -4 -4 4 -6 14 -8 22 -5 14 5 15 3 5 -15 -13 -24 -19 -26 -41 -12 -12 8
-12 10 -1 10 8 0 12 2 10 5 -3 2 -18 0 -35 -4 -28 -9 -28 -9 -4 -11 14 -1 20
-4 13 -6 -7 -3 -9 -12 -6 -20 3 -9 -1 -14 -13 -14 -16 -1 -16 -3 4 -14 20 -10
21 -14 9 -24 -7 -7 -17 -9 -20 -6 -3 4 -13 -1 -22 -10 -19 -19 -19 -19 23 -7
27 8 34 6 46 -11 12 -16 13 -26 4 -42 -10 -19 -10 -20 5 -7 10 7 17 21 17 31
0 22 29 49 31 29 1 -8 0 -21 -1 -29 -1 -8 7 -3 19 11 11 15 22 35 24 45 1 11
6 26 11 34 4 8 -3 3 -16 -12 -13 -16 -26 -28 -28 -28 -3 0 -5 15 -5 33 0 20
-5 31 -12 30 -16 -4 -17 9 -2 24 18 18 1 59 -27 61 -13 1 -24 -3 -24 -8z m47
-128 c-2 -20 -8 -28 -25 -30 -12 -2 -23 1 -23 7 -1 6 -2 17 -3 24 -2 13 34 38
46 31 4 -2 6 -17 5 -32z"/>
<path d="M1460 507 c0 -9 -5 -17 -11 -17 -5 0 -7 5 -3 12 4 6 3 8 -3 5 -5 -3
-23 -9 -39 -12 -83 -19 -97 -23 -81 -24 11 -1 15 -6 11 -13 -4 -6 -3 -8 3 -5
6 4 30 -2 54 -12 47 -20 229 -36 229 -20 0 10 3 10 -95 15 -98 5 -131 12 -146
31 -13 15 -11 16 16 9 17 -4 38 -9 47 -12 22 -6 45 33 29 49 -8 8 -11 6 -11
-6z"/>
<path d="M1690 502 c0 -10 -3 -21 -6 -25 -9 -8 -54 14 -48 24 3 5 0 9 -5 9
-19 0 -12 -27 14 -58 14 -17 25 -36 25 -43 1 -33 15 -37 45 -12 l30 25 -27 -6
c-17 -4 -28 -2 -28 4 0 5 3 9 8 9 24 -4 42 3 42 17 0 13 -7 15 -37 10 l-38 -6
29 24 c16 13 25 29 22 35 -11 17 -26 13 -26 -7z"/>
<path d="M414 483 c-9 -15 -17 -34 -17 -43 0 -8 -5 -18 -11 -22 -8 -6 -7 -11
3 -17 9 -6 10 -11 2 -15 -6 -4 -15 -25 -21 -46 -6 -22 -15 -40 -20 -40 -6 0
-10 -4 -10 -10 0 -5 13 -2 28 7 22 12 28 23 26 42 -2 16 4 30 17 39 13 9 17
20 13 36 -3 14 2 32 16 49 20 25 20 47 1 47 -5 0 -17 -12 -27 -27z"/>
<path d="M1167 503 c-25 -24 10 -45 53 -31 25 7 25 8 -2 4 -16 -2 -28 1 -28 5
0 5 7 9 16 9 8 0 12 5 9 10 -7 11 -38 13 -48 3z"/>
<path d="M1550 476 c0 -10 9 -16 21 -16 24 0 21 23 -4 28 -10 2 -17 -3 -17
-12z"/>
<path d="M560 468 c0 -8 5 -19 11 -25 8 -8 3 -13 -20 -18 -17 -3 -33 -11 -36
-16 -4 -5 0 -6 8 -3 8 3 18 1 22 -5 4 -7 -4 -11 -19 -11 -15 0 -30 -8 -36 -20
-6 -11 -7 -20 -3 -20 4 0 -2 -7 -13 -16 -19 -15 -19 -16 1 -9 11 4 30 10 43
12 31 7 28 26 -3 21 -20 -4 -23 -3 -14 8 6 8 20 14 30 14 10 0 23 9 29 20 6
11 15 20 21 20 6 0 7 -6 3 -12 -5 -9 -4 -10 4 -3 7 7 9 21 4 40 -8 30 -32 47
-32 23z"/>
<path d="M1011 453 c-12 -14 -19 -29 -16 -32 4 -3 9 0 13 6 4 7 33 14 65 15
46 2 57 6 57 21 0 14 -9 17 -49 17 -42 0 -53 -4 -70 -27z"/>
<path d="M1200 450 c-17 -6 -4 -8 44 -9 38 -1 66 2 63 5 -10 10 -79 12 -107 4z"/>
<path d="M247 399 c-37 -42 -26 -49 17 -11 19 16 32 33 29 36 -11 11 -18 7
-46 -25z"/>
<path d="M830 405 c-6 -8 -13 -31 -15 -51 -4 -35 -3 -35 16 -18 24 21 24 25 2
17 -16 -6 -16 -5 -4 10 8 10 11 20 8 24 -4 3 -2 12 4 20 6 7 9 13 6 13 -2 0
-10 -7 -17 -15z"/>
<path d="M1262 398 c-18 -18 -15 -25 11 -22 12 1 29 3 37 3 12 1 13 3 1 10
-11 7 -11 9 0 14 8 3 3 6 -11 6 -15 1 -31 -4 -38 -11z"/>
<path d="M1401 396 c10 -11 164 -24 174 -15 5 6 1 9 -10 9 -11 1 -54 3 -95 7
-41 3 -72 3 -69 -1z"/>
<path d="M1733 388 c-5 -7 -15 -25 -22 -39 -7 -15 -24 -32 -37 -39 -13 -7 -34
-27 -46 -44 -38 -52 -77 -88 -88 -81 -5 3 -10 -1 -10 -9 0 -10 -6 -13 -15 -10
-9 4 -15 0 -15 -10 0 -20 24 -21 44 0 9 8 16 13 16 9 0 -3 9 -1 20 5 11 6 18
15 15 20 -3 4 4 6 15 3 12 -3 20 0 20 8 0 7 3 9 7 6 3 -4 12 -2 19 4 9 8 10
18 3 35 -13 36 -11 41 7 18 8 -10 13 -14 10 -8 -3 6 6 20 20 30 21 15 64 89
64 110 0 9 -18 3 -27 -8z"/>
<path d="M942 374 c-14 -16 -5 -47 12 -37 6 4 5 0 -2 -9 -8 -9 -19 -15 -25
-12 -8 3 -12 -11 -13 -42 -1 -29 2 -41 8 -32 5 8 6 2 2 -16 -5 -21 -4 -27 5
-22 8 5 11 -7 11 -41 1 -38 3 -44 11 -30 5 9 7 22 3 29 -4 6 -3 8 4 4 5 -3 12
-2 14 4 1 5 3 -10 3 -34 0 -26 6 -51 14 -58 10 -10 12 -10 7 0 -4 6 -2 12 4
12 6 0 16 -11 22 -25 8 -19 14 -22 20 -13 6 10 8 10 8 1 0 -7 4 -13 9 -13 5 0
7 9 4 21 -4 12 -11 18 -20 15 -8 -3 -12 -2 -9 3 3 5 3 37 -1 71 -4 45 -9 58
-15 46 -5 -9 -7 -31 -4 -49 5 -24 4 -27 -3 -12 -5 11 -10 38 -11 60 -1 22 -4
34 -7 27 -2 -6 -9 -10 -14 -6 -5 3 -9 -2 -9 -11 0 -9 -4 -14 -9 -11 -16 10 12
54 32 51 9 -2 15 0 12 6 -4 5 -11 7 -16 4 -13 -9 -11 9 4 24 10 11 10 13 0 7
-20 -11 -15 9 7 29 11 10 20 23 20 29 -1 6 -9 0 -20 -13 -18 -21 -20 -21 -27
-5 -4 12 2 24 23 41 16 12 24 23 18 23 -6 0 -17 -6 -23 -14 -6 -8 -22 -16 -34
-20 -22 -5 -22 -5 2 13 14 11 18 18 9 18 -8 0 -19 -6 -26 -13z"/>
<path d="M268 355 c-21 -27 -22 -35 -8 -35 6 0 10 6 10 14 0 8 7 16 15 20 8 3
15 10 15 16 0 17 -14 11 -32 -15z"/>
<path d="M1044 366 c-10 -8 -17 -16 -14 -19 8 -8 50 11 50 23 0 14 -13 13 -36
-4z"/>
<path d="M1318 372 c-22 -4 -24 -32 -3 -32 9 0 18 7 22 15 7 19 3 22 -19 17z"/>
<path d="M1368 361 c-31 -18 -38 -37 -11 -27 10 4 14 4 10 0 -4 -4 5 -13 19
-20 23 -13 41 -15 97 -14 55 1 67 -3 68 -24 1 -20 1 -20 7 2 4 13 10 23 15 22
17 -3 67 12 67 21 0 5 -12 6 -27 3 -15 -4 -32 -7 -38 -6 -5 1 -23 3 -40 4 -16
2 -36 7 -43 12 -7 4 -19 3 -26 -3 -10 -9 -15 -8 -19 2 -3 8 -18 12 -36 11 -19
-1 -28 2 -25 8 4 6 23 7 48 4 25 -4 37 -3 31 2 -19 18 -70 19 -97 3z"/>
<path d="M1590 372 c0 -10 71 -25 79 -17 7 8 -2 12 -41 19 -21 4 -38 3 -38 -2z"/>
<path d="M750 345 c-9 -11 -9 -15 -1 -15 6 0 -2 -13 -19 -30 -29 -28 -40 -47
-21 -35 5 3 11 -5 13 -17 2 -12 9 -23 17 -26 9 -3 11 2 6 17 -4 12 -2 28 4 34
17 22 33 69 19 61 -8 -5 -9 -2 -5 9 8 21 3 22 -13 2z"/>
<path d="M688 309 c-19 -31 -13 -36 15 -14 13 9 16 18 10 29 -7 12 -11 9 -25
-15z"/>
<path d="M857 313 c-21 -11 -25 -18 -17 -28 6 -7 7 -21 4 -31 -5 -14 -2 -13
11 4 9 13 18 29 19 35 1 7 5 18 9 25 9 14 10 14 -26 -5z"/>
<path d="M180 278 c-8 -24 -17 -45 -20 -48 -8 -6 -70 -201 -70 -218 0 -7 5
-12 10 -12 6 0 10 9 10 21 0 11 5 29 11 40 6 11 12 30 14 41 3 12 9 24 14 27
5 3 14 33 21 66 7 33 17 63 22 66 11 7 18 59 8 59 -4 0 -13 -19 -20 -42z"/>
<path d="M382 290 c-33 -20 -50 -46 -38 -58 4 -3 18 7 32 23 14 17 23 24 19
18 -3 -7 -1 -13 5 -13 7 0 10 6 7 14 -3 7 0 19 6 25 16 16 6 13 -31 -9z"/>
<path d="M1207 303 c-4 -3 -7 -37 -7 -74 0 -59 3 -71 26 -96 15 -15 21 -20 14
-10 -15 20 -22 107 -11 122 5 5 11 22 13 38 4 21 1 27 -12 27 -9 0 -20 -3 -23
-7z"/>
<path d="M582 274 c-7 -8 -17 -12 -23 -9 -5 4 -17 -1 -26 -11 -16 -16 -16 -16
7 -9 14 4 37 13 52 20 25 12 26 12 15 -7 -10 -16 -9 -21 6 -29 14 -8 15 -14 6
-30 -6 -12 -8 -23 -5 -27 3 -3 6 0 6 7 0 7 6 11 13 8 7 -3 19 5 26 16 11 18
11 20 0 10 -13 -13 -38 -19 -26 -6 4 3 2 12 -4 19 -13 16 -4 34 17 34 8 0 14
7 14 16 0 13 -3 14 -14 5 -10 -8 -16 -9 -21 -1 -9 14 -28 12 -43 -6z"/>
<path d="M766 275 c-11 -28 -7 -38 9 -25 20 16 19 6 -1 -25 -9 -14 -14 -25
-10 -25 3 0 13 11 22 25 14 21 14 27 1 45 -13 18 -15 19 -21 5z"/>
<path d="M1257 283 c-12 -12 -7 -61 7 -66 8 -3 20 8 31 31 17 36 17 37 -2 19
-26 -23 -36 -22 -28 3 6 20 4 25 -8 13z"/>
<path d="M495 269 c-4 -6 -13 -8 -20 -5 -7 2 -16 -2 -19 -10 -9 -22 -7 -26 5
-18 6 3 3 -5 -6 -20 -13 -19 -14 -26 -4 -26 28 0 -2 -12 -36 -15 -20 -1 -41
-8 -48 -15 -10 -10 -7 -11 11 -5 12 3 22 2 22 -4 0 -5 12 -4 28 5 15 7 35 14
45 14 9 0 18 3 18 8 6 35 5 52 -5 52 -6 0 2 12 17 25 18 16 23 25 13 25 -8 0
-18 -5 -21 -11z"/>
<path d="M315 257 c-4 -10 -14 -16 -21 -13 -15 6 -17 1 -8 -31 3 -12 17 -24
32 -28 l27 -7 -26 -14 c-27 -14 -46 -44 -29 -44 6 0 10 -4 10 -10 0 -5 -7 -10
-16 -10 -8 0 -12 -4 -9 -10 8 -14 42 -13 51 2 4 7 3 8 -4 4 -7 -4 -12 -2 -12
3 0 6 6 11 13 11 15 0 18 40 2 40 -5 1 1 7 14 14 24 13 24 14 4 20 -24 8 -36
39 -21 54 6 6 8 16 5 24 -3 9 -7 8 -12 -5z"/>
<path d="M791 209 c-12 -19 -21 -38 -21 -42 0 -4 -7 -7 -16 -5 -12 2 -17 -6
-19 -29 -1 -18 1 -30 6 -27 5 3 9 12 9 20 0 8 5 12 10 9 6 -3 10 -1 10 6 0 7
12 30 26 51 15 21 24 41 21 44 -3 4 -15 -9 -26 -27z"/>
<path d="M522 214 c-10 -12 -10 -14 4 -14 13 0 14 -3 4 -15 -10 -12 -10 -15 0
-15 10 0 10 -3 0 -15 -7 -8 -18 -15 -26 -15 -7 0 -16 -4 -19 -10 -4 -6 2 -6
17 0 13 6 31 13 41 16 12 4 16 13 12 25 -5 14 -2 17 16 14 12 -2 19 -2 15 2
-3 3 0 13 7 21 11 13 9 14 -11 1 -20 -12 -25 -12 -35 2 -10 14 -14 14 -25 3z"/>
<path d="M700 221 c0 -6 -11 -21 -25 -33 -14 -12 -25 -26 -25 -32 0 -6 -10
-22 -21 -36 -14 -16 -19 -19 -15 -7 8 24 -1 21 -15 -4 -14 -27 -19 -70 -8 -63
5 3 9 0 9 -6 0 -6 -15 -17 -32 -25 l-33 -14 58 1 c31 0 57 1 57 2 0 0 7 23 15
49 8 26 10 45 5 42 -6 -4 -10 -1 -10 5 0 6 -4 8 -10 5 -5 -3 -10 -11 -10 -16
0 -6 5 -7 10 -4 6 3 10 -3 10 -15 0 -12 -4 -18 -10 -15 -6 4 -10 -5 -10 -19 0
-16 -6 -26 -14 -26 -9 0 -13 9 -12 25 2 13 -1 22 -5 19 -33 -20 14 50 74 112
39 41 43 49 27 59 -5 3 -10 1 -10 -4z"/>
<path d="M816 170 c9 -33 13 -37 24 -20 14 22 12 33 -4 27 -8 -3 -17 -1 -20 6
-3 7 -3 1 0 -13z"/>
<path d="M212 157 c10 -8 15 -17 11 -21 -4 -4 0 -4 10 0 21 8 22 -5 1 -34 -16
-23 -9 -28 16 -12 8 5 11 12 7 16 -4 4 -2 13 4 21 9 9 8 13 0 13 -6 0 -11 8
-12 18 0 10 -3 12 -6 5 -3 -10 -10 -10 -26 -2 -20 9 -20 9 -5 -4z"/>
<path d="M856 143 c-7 -30 8 -63 28 -63 6 0 3 25 -7 50 -3 8 -7 22 -10 30 -2
8 -7 1 -11 -17z"/>
<path d="M1445 161 c-3 -6 0 -22 7 -35 11 -20 16 -22 28 -13 13 11 12 15 -6
35 -13 14 -25 19 -29 13z"/>
<path d="M418 133 c-10 -2 -18 -8 -19 -11 0 -4 -2 -15 -4 -24 -2 -10 1 -18 6
-18 6 0 9 8 7 18 -2 13 3 17 22 15 14 -1 19 1 12 3 -6 3 -10 10 -6 15 3 5 4 8
2 8 -2 -1 -11 -3 -20 -6z"/>
<path d="M550 122 c0 -11 -8 -18 -20 -19 -13 -1 -18 2 -14 10 4 7 3 9 -1 4
-11 -10 -14 -47 -4 -47 4 0 12 7 17 16 5 9 12 14 17 12 4 -1 14 7 23 20 13 20
13 22 -2 22 -9 0 -16 -8 -16 -18z"/>
<path d="M1415 120 c2 -10 9 -29 15 -41 10 -17 14 -19 21 -8 4 8 4 16 -2 20
-6 3 -10 9 -10 13 3 18 0 24 -13 29 -10 4 -14 0 -11 -13z"/>
<path d="M1203 112 c5 -33 24 -49 40 -33 10 11 10 13 0 7 -7 -4 -13 -3 -13 1
0 5 -7 18 -15 29 -14 18 -15 18 -12 -4z"/>
<path d="M1341 91 c12 -22 29 -43 36 -46 8 -3 13 -2 11 2 -23 47 -32 61 -50
72 -19 12 -19 11 3 -28z"/>
<path d="M456 87 c-10 -8 -20 -26 -21 -42 -4 -28 -3 -28 16 -9 11 11 21 30 24
42 5 26 4 26 -19 9z"/>
<path d="M770 69 c5 -18 7 -36 4 -40 -3 -5 2 -6 10 -3 18 7 22 34 6 34 -5 0
-10 6 -10 14 0 8 -4 17 -9 21 -6 3 -6 -7 -1 -26z"/>
<path d="M1403 86 c4 -6 7 -27 7 -48 0 -21 5 -38 10 -38 17 0 11 57 -7 77 -10
10 -15 14 -10 9z"/>
<path d="M245 68 c-9 -32 -11 -68 -4 -68 9 0 11 8 13 53 2 29 -2 35 -9 15z"/>
<path d="M1270 67 c17 -24 10 -28 -28 -18 -23 7 -34 6 -39 -3 -5 -7 -15 -16
-23 -19 -9 -3 -3 -6 13 -6 15 -1 27 4 27 9 0 6 7 10 16 10 11 0 15 -6 11 -20
-4 -16 0 -20 18 -20 35 0 43 37 14 64 -14 13 -18 14 -9 3z"/>
<path d="M343 47 c-3 -6 -1 -7 5 -3 7 4 12 3 12 -2 0 -5 -9 -12 -20 -15 -11
-3 -20 -1 -20 5 0 5 -4 6 -10 3 -21 -13 -10 -35 18 -35 21 0 32 7 40 25 7 14
12 27 12 29 0 7 -32 1 -37 -7z"/>
<path d="M519 32 c-7 -11 -18 -18 -25 -15 -7 2 -21 0 -31 -6 -15 -9 -14 -10
13 -11 30 0 74 33 61 46 -3 3 -11 -3 -18 -14z"/>
</g>
</svg>
